<?xml version="1.0" encoding="utf-8"?>
<svg version="1.1" id="Layer_1" xmlns="http://www.w3.org/2000/svg" xmlns:xlink="http://www.w3.org/1999/xlink" x="0px" y="0px" viewBox="0 0 122.88 122.88" style="enable-background:new 0 0 122.88 122.88" xml:space="preserve">
<style type="text/css">
	.st0{fill:#FFFFFF;}
	.st1{fill:#13AA52;}
</style>
<g>
	<path class="st1" d="M61.44,0C27.53,0,0,27.53,0,61.44s27.53,61.44,61.44,61.44s61.44-27.53,61.44-61.44S95.35,0,61.44,0z"/>
	<path class="st0" d="M74.58,50.31c0-1.06-0.87-1.93-1.93-1.93c-1.06,0-1.93,0.87-1.93,1.93c0,8.77-3.56,16.71-9.31,22.46 c-5.75,5.75-13.69,9.31-22.46,9.31c-1.06,0-1.93,0.87-1.93,1.93c0,1.06,0.87,1.93,1.93,1.93c10.89,0,20.76-4.42,27.92-11.58 C70.16,71.07,74.58,61.2,74.58,50.31z"/>
	<path class="st0" d="M61.44,25.72c-19.71,0-35.72,16.01-35.72,35.72c0,19.71,16.01,35.72,35.72,35.72 c19.71,0,35.72-16.01,35.72-35.72C97.16,41.73,81.15,25.72,61.44,25.72z M61.44,89.3c-15.59,0-28.15-12.56-28.15-28.15 c0-15.59,12.56-28.15,28.15-28.15c15.59,0,28.15,12.56,28.15,28.15C89.59,76.74,77.03,89.3,61.44,89.3z"/>
	<path class="st0" d="M61.44,40.29c-11.67,0-21.15,9.48-21.15,21.15c0,11.67,9.48,21.15,21.15,21.15 c11.67,0,21.15-9.48,21.15-21.15C82.59,49.77,73.11,40.29,61.44,40.29z M61.44,75.72c-7.85,0-14.29-6.44-14.29-14.29 c0-7.85,6.44-14.29,14.29-14.29c7.85,0,14.29,6.44,14.29,14.29C75.73,69.28,69.29,75.72,61.44,75.72z"/>
	<path class="st0" d="M61.44,54.01c-4.11,0-7.43,3.32-7.43,7.43c0,4.11,3.32,7.43,7.43,7.43c4.11,0,7.43-3.32,7.43-7.43 C68.87,57.33,65.55,54.01,61.44,54.01z"/>
</g>
</svg>